<svg width="16" height="16" viewBox="0 0 16 16" fill="none" xmlns="http://www.w3.org/2000/svg">
<path d="M8.66659 6.66667H1.99992C1.63325 6.66667 1.33325 6.96667 1.33325 7.33333C1.33325 7.7 1.63325 8 1.99992 8H8.66659C9.03325 8 9.33325 7.7 9.33325 7.33333C9.33325 6.96667 9.03325 6.66667 8.66659 6.66667ZM8.66659 4H1.99992C1.63325 4 1.33325 4.3 1.33325 4.66667C1.33325 5.03333 1.63325 5.33333 1.99992 5.33333H8.66659C9.03325 5.33333 9.33325 5.03333 9.33325 4.66667C9.33325 4.3 9.03325 4 8.66659 4ZM11.9999 9.33333V7.33333C11.9999 6.96667 11.6999 6.66667 11.3333 6.66667C10.9666 6.66667 10.6666 6.96667 10.6666 7.33333V9.33333H8.66659C8.29992 9.33333 7.99992 9.63333 7.99992 10C7.99992 10.3667 8.29992 10.6667 8.66659 10.6667H10.6666V12.6667C10.6666 13.0333 10.9666 13.3333 11.3333 13.3333C11.6999 13.3333 11.9999 13.0333 11.9999 12.6667V10.6667H13.9999C14.3666 10.6667 14.6666 10.3667 14.6666 10C14.6666 9.63333 14.3666 9.33333 13.9999 9.33333H11.9999ZM1.99992 10.6667H5.99992C6.36659 10.6667 6.66659 10.3667 6.66659 10C6.66659 9.63333 6.36659 9.33333 5.99992 9.33333H1.99992C1.63325 9.33333 1.33325 9.63333 1.33325 10C1.33325 10.3667 1.63325 10.6667 1.99992 10.6667Z" fill="#ED145B"/>
</svg>
