<svg width="13" height="10" viewBox="0 0 13 10" fill="none" xmlns="http://www.w3.org/2000/svg">
<path d="M7.33333 3.33333C7.33333 3.7 7.03333 4 6.66667 4H0.666667C0.3 4 0 3.7 0 3.33333C0 2.96667 0.3 2.66667 0.666667 2.66667H6.66667C7.03333 2.66667 7.33333 2.96667 7.33333 3.33333ZM0 0.666667C0 1.03333 0.3 1.33333 0.666667 1.33333H6.66667C7.03333 1.33333 7.33333 1.03333 7.33333 0.666667C7.33333 0.3 7.03333 0 6.66667 0H0.666667C0.3 0 0 0.3 0 0.666667ZM4.66667 6C4.66667 5.63333 4.36667 5.33333 4 5.33333H0.666667C0.3 5.33333 0 5.63333 0 6C0 6.36667 0.3 6.66667 0.666667 6.66667H4C4.36667 6.66667 4.66667 6.36667 4.66667 6ZM10.0067 4.58L10.48 4.10667C10.74 3.84667 11.16 3.84667 11.42 4.10667L11.8933 4.58C12.1533 4.84 12.1533 5.26 11.8933 5.52L11.42 5.99333L10.0067 4.58ZM9.53333 5.05333L6.09333 8.49333C6.03333 8.55333 6 8.63333 6 8.72667V9.66667C6 9.85333 6.14667 10 6.33333 10H7.27333C7.36 10 7.44667 9.96667 7.50667 9.9L10.9467 6.46L9.53333 5.05333Z" fill="#ED145B"/>
</svg>
